<svg width="23" height="23" viewBox="0 0 23 23" fill="none" xmlns="http://www.w3.org/2000/svg">
<g id="&#240;&#159;&#166;&#134; icon &#34;Times Circle&#34;">
<path id="Vector" d="M11.5 0C5.14718 0 0 5.14718 0 11.5C0 17.8528 5.14718 23 11.5 23C17.8528 23 23 17.8528 23 11.5C23 5.14718 17.8528 0 11.5 0ZM11.5 20.7742C6.37601 20.7742 2.22581 16.624 2.22581 11.5C2.22581 6.37601 6.37601 2.22581 11.5 2.22581C16.624 2.22581 20.7742 6.37601 20.7742 11.5C20.7742 16.624 16.624 20.7742 11.5 20.7742ZM16.2206 8.61573L13.3363 11.5L16.2206 14.3843C16.4385 14.6022 16.4385 14.9546 16.2206 15.1726L15.1726 16.2206C14.9546 16.4385 14.6022 16.4385 14.3843 16.2206L11.5 13.3363L8.61573 16.2206C8.39778 16.4385 8.04536 16.4385 7.82742 16.2206L6.77944 15.1726C6.56149 14.9546 6.56149 14.6022 6.77944 14.3843L9.66371 11.5L6.77944 8.61573C6.56149 8.39778 6.56149 8.04536 6.77944 7.82742L7.82742 6.77944C8.04536 6.56149 8.39778 6.56149 8.61573 6.77944L11.5 9.66371L14.3843 6.77944C14.6022 6.56149 14.9546 6.56149 15.1726 6.77944L16.2206 7.82742C16.4385 8.04536 16.4385 8.39778 16.2206 8.61573Z" fill="#EBEBEB"/>
</g>
</svg>
